<svg xmlns="http://www.w3.org/2000/svg" viewBox="0 0 32 32">
  <path fill="#ef476f" d="M6 20c0 2.8-1.3 5.5-4 8 4-.8 6.8-2.1 8.5-3.8 1.3-1.3 1.5-2.9 1.6-4.2.1-1.3.1-2.1 1.8-2.9l10.3-4.9c2.7-1.3 4.3-4 4.3-7.1V2l-11 5.2c-2.3 1.1-3.7 3.3-3.7 5.8 0 1.4-.4 2-1.8 2.6-3 1.3-5 3.4-5 6.4Z"/>
  <path fill="#1d3557" d="M28 2v4.9c0 2.3-1.2 4.3-3.3 5.3l-9.7 4.6c-.4.2-.7.4-1 .5-.9.4-1.5 1.1-1.6 2.2-.1 1.5-.3 3.5-2.1 5.3 1.6-.4 2.7-1 3.4-1.7 1-.9 1.2-2 1.3-3.2 0-.6 0-1.2.2-1.7.3-1 .9-1.7 1.9-2.1l9.7-4.6c2.8-1.4 4.4-4.2 4.4-7.4V2Z"/>
</svg>

