<svg xmlns="http://www.w3.org/2000/svg" viewBox="0 0 32 32">
  <path fill="#a8dadc" d="M16 4c-7 0-12 5.2-12 11.4 0 4.4 2.8 7.9 6.7 7.9 1 0 1.5-.5 1.7-1.1.4-1.4-.5-2.2-.5-3.7 0-3 2.9-5.5 6.3-5.5 4.5 0 7.8 3.8 7.8 7.6 0 3.3-2.4 5.4-5.9 5.4-1.4 0-2.7-.4-3.6-1 0 0-1.4 2.6-1.8 3.4A2.7 2.7 0 0 0 18.5 30C25 30 30 25 30 18.5S25 4 16 4Z"/>
  <circle cx="11" cy="11" r="2" fill="#ef476f"/>
  <circle cx="18" cy="9" r="2" fill="#457b9d"/>
  <circle cx="22" cy="14" r="2" fill="#ffd166"/>
  <circle cx="10" cy="18" r="2" fill="#1d3557"/>
</svg>

